<?xml version="1.0" encoding="UTF-8" standalone="no"?>
<svg
   width="139.23499020146852mm"
   height="76.09071606274851mm"
   viewBox="0 0 139.23499020146852 76.09071606274851"
   version="1.1"
   id="svg30"
   sodipodi:docname="WheelBoard_Inkscape_Optimizes.svg"
   inkscape:version="1.3 (0e150ed6c4, 2023-07-21)"
   xmlns:inkscape="http://www.inkscape.org/namespaces/inkscape"
   xmlns:sodipodi="http://sodipodi.sourceforge.net/DTD/sodipodi-0.dtd"
   xmlns="http://www.w3.org/2000/svg"
   xmlns:svg="http://www.w3.org/2000/svg"
   xmlns:rdf="http://www.w3.org/1999/02/22-rdf-syntax-ns#"
   xmlns:cc="http://creativecommons.org/ns#"
   xmlns:dc="http://purl.org/dc/elements/1.1/">
  <title
     id="title30">Wheel Board</title>
  <defs
     id="defs30" />
  <sodipodi:namedview
     id="namedview30"
     pagecolor="#ffffff"
     bordercolor="#666666"
     borderopacity="1.0"
     inkscape:showpageshadow="2"
     inkscape:pageopacity="0.0"
     inkscape:pagecheckerboard="0"
     inkscape:deskcolor="#d1d1d1"
     inkscape:document-units="mm"
     inkscape:zoom="0.76580669"
     inkscape:cx="189.34282"
     inkscape:cy="86.836536"
     inkscape:window-width="1920"
     inkscape:window-height="997"
     inkscape:window-x="1352"
     inkscape:window-y="15"
     inkscape:window-maximized="1"
     inkscape:current-layer="layer3" />
  <g
     inkscape:groupmode="layer"
     id="layer3"
     inkscape:label="Layer 1">
    <g
       inkscape:groupmode="layer"
       id="silkscreen"
       inkscape:label="silkscreen">
      <path
         id="circle30-7"
         style="fill:none;fill-opacity:1;stroke:#00ff00;stroke-width:0.35;stroke-linecap:square;stroke-opacity:1"
         d="m 105.42153,41.515042 a 0.87975597,0.87975597 0 0 0 -0.87975,-0.879756 0.87975597,0.87975597 0 0 0 -0.87976,0.879756 0.87975597,0.87975597 0 0 0 0.87976,0.879756 0.87975597,0.87975597 0 0 0 0.87975,-0.879756 z M 92.433053,22.578234 a 0.88064599,0.88064599 0 0 0 -0.880646,-0.880646 0.88064599,0.88064599 0 0 0 -0.880646,0.880646 0.88064599,0.88064599 0 0 0 0.880646,0.880646 0.88064599,0.88064599 0 0 0 0.880646,-0.880646 z m 5.103022,-0.429456 a 0.81878,0.81878 0 0 0 -0.81878,-0.81878 0.81878,0.81878 0 0 0 -0.818779,0.81878 0.81878,0.81878 0 0 0 0.818779,0.818781 0.81878,0.81878 0 0 0 0.81878,-0.818781 z M 92.43036,35.045732 a 0.91110599,0.91110599 0 0 0 -0.911106,-0.911106 0.91110599,0.91110599 0 0 0 -0.911106,0.911106 0.91110599,0.91110599 0 0 0 0.911106,0.911106 0.91110599,0.91110599 0 0 0 0.911106,-0.911106 z m 4.961825,-0.01163 a 0.964104,0.964104 0 0 0 -0.9641,-0.964104 0.964104,0.964104 0 0 0 -0.964105,0.964104 0.964104,0.964104 0 0 0 0.964105,0.964104 0.964104,0.964104 0 0 0 0.9641,-0.964104 z m 3.751535,23.674757 a 0.77288401,0.77288401 0 0 0 -0.77289,-0.772884 0.77288401,0.77288401 0 0 0 -0.772885,0.772884 0.77288401,0.77288401 0 0 0 0.772885,0.772884 0.77288401,0.77288401 0 0 0 0.77289,-0.772884 z m 2.22239,0 a 0.64155102,0.64155102 0 0 0 -0.64155,-0.641551 0.64155102,0.64155102 0 0 0 -0.64155,0.641551 0.64155102,0.64155102 0 0 0 0.64155,0.641551 0.64155102,0.64155102 0 0 0 0.64155,-0.641551 z m 2.44729,-0.120703 a 0.67475498,0.67475498 0 0 0 -0.67475,-0.674755 0.67475498,0.67475498 0 0 0 -0.67476,0.674755 0.67475498,0.67475498 0 0 0 0.67476,0.674755 0.67475498,0.67475498 0 0 0 0.67475,-0.674755 z M 95.610368,53.59931 a 0.86371398,0.86371398 0 0 0 -0.863714,-0.863714 0.86371398,0.86371398 0 0 0 -0.863714,0.863714 0.86371398,0.86371398 0 0 0 0.863714,0.863714 0.86371398,0.86371398 0 0 0 0.863714,-0.863714 z M 69.626422,24.011203 a 3.19772,3.19772 0 0 0 0,-6.394217 m 7.150854,34.351534 a 0.84776503,0.84776503 0 0 0 -0.847765,-0.847765 0.84776503,0.84776503 0 0 0 -0.847765,0.847765 0.84776503,0.84776503 0 0 0 0.847765,0.847765 0.84776503,0.84776503 0 0 0 0.847765,-0.847765 z m 0.167966,-12.926554 a 0.86448002,0.86448002 0 0 0 -0.86448,-0.86448 0.86448002,0.86448002 0 0 0 -0.86448,0.86448 0.86448002,0.86448002 0 0 0 0.86448,0.86448 0.86448002,0.86448002 0 0 0 0.86448,-0.86448 z m 38.109028,-5.479157 a 2.3210831,2.3210831 0 0 0 -2.32108,-2.321083 2.3210831,2.3210831 0 0 0 -2.32108,2.321083 2.3210831,2.3210831 0 0 0 2.32108,2.321083 2.3210831,2.3210831 0 0 0 2.32108,-2.321083 z M 97.764125,12.517829 a 3.185169,3.185169 0 0 0 -3.185173,-3.185169 3.185169,3.185169 0 0 0 -3.185169,3.185169 3.185169,3.185169 0 0 0 3.185169,3.185169 3.185169,3.185169 0 0 0 3.185173,-3.185169 z m 2.757805,26.896896 a 3.1326849,3.1326849 0 0 0 -3.132685,-3.132685 3.1326849,3.1326849 0 0 0 -3.132687,3.132685 3.1326849,3.1326849 0 0 0 3.132687,3.132685 3.1326849,3.1326849 0 0 0 3.132685,-3.132685 z M 88.836866,68.483768 a 3.2617099,3.2617099 0 0 0 -3.26171,-3.26171 3.2617099,3.2617099 0 0 0 -3.26171,3.26171 3.2617099,3.2617099 0 0 0 3.26171,3.26171 3.2617099,3.2617099 0 0 0 3.26171,-3.26171 z M 35.586424,41.515296 a 0.88,0.88 0 0 0 -0.88,-0.88 0.88,0.88 0 0 0 -0.88,0.88 0.88,0.88 0 0 0 0.88,0.88 0.88,0.88 0 0 0 0.88,-0.88 z M 48.492781,22.582951 a 0.7963593,0.7963593 0 0 0 -0.796359,-0.796359 0.7963593,0.7963593 0 0 0 -0.79636,0.796359 0.7963593,0.7963593 0 0 0 0.79636,0.796359 0.7963593,0.7963593 0 0 0 0.796359,-0.796359 z m -4.869999,0 a 0.7963593,0.7963593 0 0 0 -0.796359,-0.796359 0.7963593,0.7963593 0 0 0 -0.79636,0.796359 0.7963593,0.7963593 0 0 0 0.79636,0.796359 0.7963593,0.7963593 0 0 0 0.796359,-0.796359 z m 4.869999,12.45 a 0.7963593,0.7963593 0 0 0 -0.796359,-0.796359 0.7963593,0.7963593 0 0 0 -0.79636,0.796359 0.7963593,0.7963593 0 0 0 0.79636,0.796359 0.7963593,0.7963593 0 0 0 0.796359,-0.796359 z m -4.869999,0 a 0.7963593,0.7963593 0 0 0 -0.796359,-0.796359 0.7963593,0.7963593 0 0 0 -0.79636,0.796359 0.7963593,0.7963593 0 0 0 0.79636,0.796359 0.7963593,0.7963593 0 0 0 0.796359,-0.796359 z m -4.06136,23.676586 a 0.67500001,0.67500001 0 0 0 -0.675,-0.675 0.67500001,0.67500001 0 0 0 -0.675,0.675 0.67500001,0.67500001 0 0 0 0.675,0.675 0.67500001,0.67500001 0 0 0 0.675,-0.675 z m -2.359998,0 a 0.67500001,0.67500001 0 0 0 -0.675,-0.675 0.67500001,0.67500001 0 0 0 -0.675,0.675 0.67500001,0.67500001 0 0 0 0.675,0.675 0.67500001,0.67500001 0 0 0 0.675,-0.675 z m -2.41,0 a 0.67500001,0.67500001 0 0 0 -0.675,-0.675 0.67500001,0.67500001 0 0 0 -0.675,0.675 0.67500001,0.67500001 0 0 0 0.675,0.675 0.67500001,0.67500001 0 0 0 0.675,-0.675 z m 10.579997,-5.108326 a 0.86500001,0.86500001 0 0 0 -0.865,-0.865 0.86500001,0.86500001 0 0 0 -0.865,0.865 0.86500001,0.86500001 0 0 0 0.865,0.865 0.86500001,0.86500001 0 0 0 0.865,-0.865 z M 69.626422,17.617486 a 3.2,3.2 0 0 0 0,6.4 m -9.35,-22.388225 9.35,-0.132107 9.28354,-0.132068 c 10.51022,1.665954 20.400983,6.05506 28.688168,12.7306 3.40649,3.258929 7.78972,5.307851 12.47489,5.831337 h 13.93635 l 3.60139,3.781889 v 3.715015 l -2.71193,-4.1e-5 c -2.6926,1.025458 -2.78498,4.800706 -0.14576,5.956631 h 3.11687 l -1e-5,8.232769 c -17.30281,5.832846 -32.01121,17.55065 -41.563262,33.11238 H 69.626422 M 60.275247,1.624669 a 60.83,60.83 0 0 0 -28.537825,12.600417 21.78,21.78 0 0 1 -12.5496,5.716 l -13.9486678,5e-6 -3.60092,3.69 v 3.72 h 3.06 a 3.31,3.31 0 0 1 -0.273212,6.028905 l -3.059974,-4e-6 v 8.23 A 78.01,78.01 0 0 1 42.946422,74.714586 l 26.68,1.1e-5 m -5.44778,-22.74713 a 0.85000002,0.85000002 0 0 0 -0.85,-0.85 0.85000002,0.85000002 0 0 0 -0.85,0.85 0.85000002,0.85000002 0 0 0 0.85,0.85 0.85000002,0.85000002 0 0 0 0.85,-0.85 z m -0.138169,-12.92593 a 0.86405134,0.86405134 0 0 0 -0.864051,-0.864051 0.86405134,0.86405134 0 0 0 -0.864051,0.864051 0.86405134,0.86405134 0 0 0 0.864051,0.864052 0.86405134,0.86405134 0 0 0 0.864051,-0.864052 z M 28.836421,33.570356 a 2.3199999,2.3199999 0 0 0 -2.32,-2.32 2.3199999,2.3199999 0 0 0 -2.32,2.32 2.3199999,2.3199999 0 0 0 2.32,2.32 2.3199999,2.3199999 0 0 0 2.32,-2.32 z m 19.025,-21.049519 a 3.1849999,3.1849999 0 0 0 -3.185,-3.185 3.1849999,3.1849999 0 0 0 -3.185,3.185 3.1849999,3.1849999 0 0 0 3.185,3.185 3.1849999,3.1849999 0 0 0 3.185,-3.185 z m -2.859999,26.892949 a 3.135,3.135 0 0 0 -3.135,-3.135 3.135,3.135 0 0 0 -3.135,3.135 3.135,3.135 0 0 0 3.135,3.135 3.135,3.135 0 0 0 3.135,-3.135 z m 11.932413,29.071743 a 3.26,3.26 0 0 0 -3.26,-3.26 3.26,3.26 0 0 0 -3.26,3.26 3.26,3.26 0 0 0 3.26,3.26 3.26,3.26 0 0 0 3.26,-3.26 z"
         inkscape:label="wheel_board_ss" />
    </g>
    <g
       inkscape:groupmode="layer"
       id="board"
       inkscape:label="board">
      <path
         id="circle30"
         style="fill:#00b20a;stroke:none;stroke-width:0.35;stroke-linecap:square;fill-opacity:1"
         d="m 35.795108,-3.3375559 a 0.87975597,0.87975597 0 0 1 -0.879756,0.879756 0.87975597,0.87975597 0 0 1 -0.879756,-0.879756 0.87975597,0.87975597 0 0 1 0.879756,-0.879756 0.87975597,0.87975597 0 0 1 0.879756,0.879756 z M 22.806631,15.599252 a 0.88064599,0.88064599 0 0 1 -0.880646,0.880646 0.88064599,0.88064599 0 0 1 -0.880646,-0.880646 0.88064599,0.88064599 0 0 1 0.880646,-0.880646 0.88064599,0.88064599 0 0 1 0.880646,0.880646 z m 5.103023,0.429456 a 0.81878,0.81878 0 0 1 -0.81878,0.81878 0.81878,0.81878 0 0 1 -0.81878,-0.81878 0.81878,0.81878 0 0 1 0.81878,-0.818781 0.81878,0.81878 0 0 1 0.81878,0.818781 z M 22.803938,3.1317539 a 0.91110599,0.91110599 0 0 1 -0.911106,0.911106 0.91110599,0.91110599 0 0 1 -0.911106,-0.911106 0.91110599,0.91110599 0 0 1 0.911106,-0.911106 0.91110599,0.91110599 0 0 1 0.911106,0.911106 z m 4.961828,0.011629 a 0.964104,0.964104 0 0 1 -0.964104,0.964104 0.964104,0.964104 0 0 1 -0.964104,-0.964104 0.964104,0.964104 0 0 1 0.964104,-0.964104 0.964104,0.964104 0 0 1 0.964104,0.964104 z m 3.751526,-23.674757 a 0.77288401,0.77288401 0 0 1 -0.772884,0.772884 0.77288401,0.77288401 0 0 1 -0.772884,-0.772884 0.77288401,0.77288401 0 0 1 0.772884,-0.772884 0.77288401,0.77288401 0 0 1 0.772884,0.772884 z m 2.222396,0 a 0.64155102,0.64155102 0 0 1 -0.641551,0.641551 0.64155102,0.64155102 0 0 1 -0.641551,-0.641551 0.64155102,0.64155102 0 0 1 0.641551,-0.641551 0.64155102,0.64155102 0 0 1 0.641551,0.641551 z m 2.447289,0.120703 a 0.67475498,0.67475498 0 0 1 -0.674755,0.674755 0.67475498,0.67475498 0 0 1 -0.674755,-0.674755 0.67475498,0.67475498 0 0 1 0.674755,-0.674755 0.67475498,0.67475498 0 0 1 0.674755,0.674755 z m -10.203031,4.988847 a 0.86371398,0.86371398 0 0 1 -0.863714,0.863714 0.86371398,0.86371398 0 0 1 -0.863714,-0.863714 0.86371398,0.86371398 0 0 1 0.863714,-0.863714 0.86371398,0.86371398 0 0 1 0.863714,0.863714 z M 0,14.166283 A 3.19772,3.19772 0 0 1 0,20.5605 m 7.1508542,-34.351534 a 0.84776503,0.84776503 0 0 1 -0.8477651,0.847765 0.84776503,0.84776503 0 0 1 -0.847765,-0.847765 0.84776503,0.84776503 0 0 1 0.847765,-0.847765 0.84776503,0.84776503 0 0 1 0.8477651,0.847765 z M 7.31882,-0.86448002 A 0.86448002,0.86448002 0 0 1 6.45434,0 0.86448002,0.86448002 0 0 1 5.58986,-0.86448002 0.86448002,0.86448002 0 0 1 6.45434,-1.72896 0.86448002,0.86448002 0 0 1 7.31882,-0.86448002 Z M 45.427845,4.614677 A 2.3210831,2.3210831 0 0 1 43.106762,6.93576 2.3210831,2.3210831 0 0 1 40.785679,4.614677 2.3210831,2.3210831 0 0 1 43.106762,2.2935939 2.3210831,2.3210831 0 0 1 45.427845,4.614677 Z m -17.290146,21.04498 a 3.185169,3.185169 0 0 1 -3.185169,3.185169 3.185169,3.185169 0 0 1 -3.185169,-3.185169 3.185169,3.185169 0 0 1 3.185169,-3.185169 3.185169,3.185169 0 0 1 3.185169,3.185169 z m 2.757807,-26.896896 a 3.1326849,3.1326849 0 0 1 -3.132685,3.1326849 3.1326849,3.1326849 0 0 1 -3.132685,-3.1326849 3.1326849,3.1326849 0 0 1 3.132685,-3.1326849 3.1326849,3.1326849 0 0 1 3.132685,3.1326849 z M 19.210444,-30.306282 a 3.2617099,3.2617099 0 0 1 -3.26171,3.26171 3.2617099,3.2617099 0 0 1 -3.26171,-3.26171 3.2617099,3.2617099 0 0 1 3.26171,-3.26171 3.2617099,3.2617099 0 0 1 3.26171,3.26171 z m -53.250442,26.9684715 a 0.88,0.88 0 0 1 -0.88,0.88 0.88,0.88 0 0 1 -0.88,-0.88 0.88,0.88 0 0 1 0.88,-0.88 0.88,0.88 0 0 1 0.88,0.88 z m 12.906357,18.9323455 a 0.7963593,0.7963593 0 0 1 -0.796359,0.796359 0.7963593,0.7963593 0 0 1 -0.79636,-0.796359 0.7963593,0.7963593 0 0 1 0.79636,-0.796359 0.7963593,0.7963593 0 0 1 0.796359,0.796359 z m -4.869999,0 a 0.7963593,0.7963593 0 0 1 -0.796359,0.796359 0.7963593,0.7963593 0 0 1 -0.79636,-0.796359 0.7963593,0.7963593 0 0 1 0.79636,-0.796359 0.7963593,0.7963593 0 0 1 0.796359,0.796359 z M -21.133641,3.1445348 A 0.7963593,0.7963593 0 0 1 -21.93,3.9408941 0.7963593,0.7963593 0 0 1 -22.72636,3.1445348 0.7963593,0.7963593 0 0 1 -21.93,2.3481755 a 0.7963593,0.7963593 0 0 1 0.796359,0.7963593 z m -4.869999,0 a 0.7963593,0.7963593 0 0 1 -0.796359,0.7963593 0.7963593,0.7963593 0 0 1 -0.79636,-0.7963593 0.7963593,0.7963593 0 0 1 0.79636,-0.7963593 0.7963593,0.7963593 0 0 1 0.796359,0.7963593 z M -30.065,-20.532051 a 0.67500001,0.67500001 0 0 1 -0.675,0.675 0.67500001,0.67500001 0 0 1 -0.675,-0.675 0.67500001,0.67500001 0 0 1 0.675,-0.675 0.67500001,0.67500001 0 0 1 0.675,0.675 z m -2.359998,0 a 0.67500001,0.67500001 0 0 1 -0.675,0.675 0.67500001,0.67500001 0 0 1 -0.675,-0.675 0.67500001,0.67500001 0 0 1 0.675,-0.675 0.67500001,0.67500001 0 0 1 0.675,0.675 z m -2.41,0 a 0.67500001,0.67500001 0 0 1 -0.675,0.675 0.67500001,0.67500001 0 0 1 -0.675,-0.675 0.67500001,0.67500001 0 0 1 0.675,-0.675 0.67500001,0.67500001 0 0 1 0.675,0.675 z m 10.579997,5.108326 a 0.86500001,0.86500001 0 0 1 -0.865,0.865 0.86500001,0.86500001 0 0 1 -0.865,-0.865 0.86500001,0.86500001 0 0 1 0.865,-0.865 0.86500001,0.86500001 0 0 1 0.865,0.865 z M 0,20.56 a 3.2,3.2 0 0 1 0,-6.4 M -9.35,36.548225 0,36.680332 9.28354,36.8124 c 10.51022,-1.665954 20.400984,-6.05506 28.68816,-12.7306 3.406496,-3.258929 7.789725,-5.307851 12.474893,-5.831337 h 13.936349 l 3.601387,-3.781889 V 10.753559 L 65.2724,10.7536 C 62.579802,9.7281418 62.487424,5.9528937 65.126645,4.796969 h 3.116873 L 68.2435,-3.4358 C 50.940696,-9.2686458 36.232297,-20.98645 26.680246,-36.54818 H 0 M -9.3511747,36.552817 A 60.83,60.83 0 0 1 -37.889,23.9524 21.78,21.78 0 0 0 -50.4386,18.2364 l -13.948668,-5e-6 -3.60092,-3.69 v -3.72 h 3.06 A 3.31,3.31 0 0 0 -65.2014,4.79749 l -3.059974,3.7e-6 v -8.23 A 78.01,78.01 0 0 0 -26.68,-36.5371 L 0,-36.537111 m -5.4477795,22.74713 a 0.85000002,0.85000002 0 0 1 -0.8500001,0.85 0.85000002,0.85000002 0 0 1 -0.85,-0.85 0.85000002,0.85000002 0 0 1 0.85,-0.85 0.85000002,0.85000002 0 0 1 0.8500001,0.85 z m -0.138169,12.92592966 A 0.86405134,0.86405134 0 0 1 -6.4499998,0 0.86405134,0.86405134 0 0 1 -7.3140512,-0.86405134 0.86405134,0.86405134 0 0 1 -6.4499998,-1.7281027 0.86405134,0.86405134 0 0 1 -5.5859485,-0.86405134 Z M -40.790001,4.6071301 a 2.3199999,2.3199999 0 0 1 -2.32,2.3199999 2.3199999,2.3199999 0 0 1 -2.32,-2.3199999 2.3199999,2.3199999 0 0 1 2.32,-2.32 2.3199999,2.3199999 0 0 1 2.32,2.32 z m 19.025,21.0495189 a 3.1849999,3.1849999 0 0 1 -3.185,3.185 3.1849999,3.1849999 0 0 1 -3.185,-3.185 3.1849999,3.1849999 0 0 1 3.185,-3.185 3.1849999,3.1849999 0 0 1 3.185,3.185 z M -24.625,-1.2363001 a 3.135,3.135 0 0 1 -3.135,3.135 3.135,3.135 0 0 1 -3.135,-3.135 3.135,3.135 0 0 1 3.135,-3.135 3.135,3.135 0 0 1 3.135,3.135 z m 11.932413,-29.0717429 a 3.26,3.26 0 0 1 -3.26,3.26 3.26,3.26 0 0 1 -3.26,-3.26 3.26,3.26 0 0 1 3.26,-3.26 3.26,3.26 0 0 1 3.26,3.26 z"
         transform="matrix(1,0,0,-1,69.626422,38.177486)"
         inkscape:label="wheel_board" />
    </g>
  </g>
  <metadata
     id="metadata30">
    <rdf:RDF>
      <cc:Work
         rdf:about="">
        <dc:title>Wheel Board</dc:title>
      </cc:Work>
    </rdf:RDF>
  </metadata>
</svg>
