<?xml version="1.0" encoding="UTF-8" standalone="no"?>
<svg
   width="139.23499158947484mm"
   height="76.09071608996432mm"
   viewBox="0 0 139.23499158947484 76.09071608996432"
   version="1.1"
   id="svg31"
   sodipodi:docname="WheelBoard-Inkscape.svg"
   inkscape:version="1.3 (0e150ed6c4, 2023-07-21)"
   xmlns:inkscape="http://www.inkscape.org/namespaces/inkscape"
   xmlns:sodipodi="http://sodipodi.sourceforge.net/DTD/sodipodi-0.dtd"
   xmlns="http://www.w3.org/2000/svg"
   xmlns:svg="http://www.w3.org/2000/svg">
  <defs
     id="defs31" />
  <sodipodi:namedview
     id="namedview31"
     pagecolor="#ffffff"
     bordercolor="#666666"
     borderopacity="1.0"
     inkscape:showpageshadow="2"
     inkscape:pageopacity="0.0"
     inkscape:pagecheckerboard="0"
     inkscape:deskcolor="#d1d1d1"
     inkscape:document-units="mm"
     inkscape:zoom="1.7938499"
     inkscape:cx="225.7714"
     inkscape:cy="135.18411"
     inkscape:window-width="1920"
     inkscape:window-height="997"
     inkscape:window-x="1352"
     inkscape:window-y="15"
     inkscape:window-maximized="1"
     inkscape:current-layer="layer4" />
  <g
     id="Wheelboard"
     transform="translate(69.626424,38.177487) scale(1,-1)"
     inkscape:label="board">
    <title
       id="title30">b'Wheelboard'</title>
    <path
       id="circle30"
       style="fill:#0ef02d;fill-opacity:1;stroke:none;stroke-width:0.35;stroke-linecap:square"
       d="m 35.795108,-3.3375559 c 0,0.4858758 -0.39388,0.879756 -0.879756,0.879756 -0.485876,0 -0.879756,-0.3938802 -0.879756,-0.879756 0,-0.4858758 0.39388,-0.879756 0.879756,-0.879756 0.485876,0 0.879756,0.3938802 0.879756,0.879756 z M 22.806631,15.599252 c 0,0.486367 -0.394279,0.880646 -0.880646,0.880646 -0.486367,0 -0.880646,-0.394279 -0.880646,-0.880646 0,-0.486367 0.394279,-0.880646 0.880646,-0.880646 0.486367,0 0.880646,0.394279 0.880646,0.880646 z m 5.103023,0.429456 c 0,0.4522 -0.36658,0.81878 -0.81878,0.81878 -0.4522,0 -0.81878,-0.36658 -0.81878,-0.81878 -10e-7,-0.4522 0.36658,-0.818781 0.81878,-0.818781 0.4522,0 0.818781,0.366581 0.81878,0.818781 z M 22.803938,3.1317539 c 0,0.50319 -0.407916,0.911106 -0.911106,0.911106 -0.50319,0 -0.911106,-0.407916 -0.911106,-0.911106 0,-0.50319 0.407916,-0.911106 0.911106,-0.911106 0.50319,0 0.911106,0.407916 0.911106,0.911106 z m 4.961828,0.011629 c 0,0.5324599 -0.431644,0.964104 -0.964104,0.964104 -0.53246,0 -0.964104,-0.4316441 -0.964104,-0.964104 0,-0.5324599 0.431644,-0.964104 0.964104,-0.964104 0.53246,0 0.964104,0.4316441 0.964104,0.964104 z m 3.751526,-23.6747569 c 0,0.426852 -0.346032,0.772884 -0.772884,0.772884 -0.426852,0 -0.772884,-0.346032 -0.772884,-0.772884 0,-0.426852 0.346032,-0.772884 0.772884,-0.772884 0.426852,0 0.772884,0.346032 0.772884,0.772884 z m 2.222396,0 c 0,0.354319 -0.287232,0.641551 -0.641551,0.641551 -0.354319,0 -0.641551,-0.287232 -0.641551,-0.641551 0,-0.354319 0.287232,-0.641551 0.641551,-0.641551 0.354319,0 0.641551,0.287232 0.641551,0.641551 z m 2.447289,0.120703 c 0,0.372657 -0.302098,0.674755 -0.674755,0.674755 -0.372657,0 -0.674755,-0.302098 -0.674755,-0.674755 0,-0.372657 0.302098,-0.674755 0.674755,-0.674755 0.372657,0 0.674755,0.302098 0.674755,0.674755 z m -10.203031,4.988847 c 0,0.477016 -0.386698,0.863714 -0.863714,0.863714 -0.477016,0 -0.863714,-0.386698 -0.863714,-0.863714 0,-0.477016 0.386698,-0.863714 0.863714,-0.863714 0.477016,0 0.863714,0.386698 0.863714,0.863714 z M 0,20.56025 C -4.2666648,20.56 -4.2666648,14.16 0,14.163142 c 4.1802471,0.0849 4.1802471,6.315595 0,6.397108 z m 7.1508542,-34.351284 c 0,0.468208 -0.3795574,0.847765 -0.8477651,0.847765 -0.4682077,0 -0.847765,-0.379557 -0.847765,-0.847765 0,-0.468208 0.3795573,-0.847765 0.847765,-0.847765 0.4682077,0 0.8477651,0.379557 0.8477651,0.847765 z M 7.31882,-0.86448002 C 7.31882,-0.3870409 6.9317791,-1.1045685e-8 6.45434,0 5.9769009,-1.1045685e-8 5.58986,-0.3870409 5.58986,-0.86448002 5.58986,-1.3419191 5.9769009,-1.72896 6.45434,-1.72896 c 0.4774391,0 0.86448,0.3870409 0.86448,0.86447998 z M 45.427845,4.614677 c 0,1.2818987 -1.039184,2.3210829 -2.321083,2.321083 -1.281899,-1e-7 -2.321083,-1.0391843 -2.321083,-2.321083 0,-1.2818988 1.039184,-2.321083 2.321083,-2.3210831 1.281899,1e-7 2.321083,1.0391843 2.321083,2.3210831 z m -17.290146,21.04498 c 0,1.75912 -1.426049,3.185169 -3.185169,3.185169 -1.75912,0 -3.185169,-1.426049 -3.185169,-3.185169 0,-1.75912 1.426049,-3.185169 3.185169,-3.185169 1.75912,0 3.185169,1.426049 3.185169,3.185169 z m 2.757807,-26.896896 c 0,1.73013413 -1.402551,3.132685 -3.132685,3.1326849 -1.730134,1e-7 -3.132685,-1.40255077 -3.132685,-3.1326849 0,-1.7301341 1.402551,-3.132685 3.132685,-3.1326849 1.730134,-1e-7 3.132685,1.4025508 3.132685,3.1326849 z M 19.210444,-30.306282 c 0,1.801393 -1.460317,3.26171 -3.26171,3.26171 -1.801393,0 -3.26171,-1.460317 -3.26171,-3.26171 0,-1.801393 1.460317,-3.26171 3.26171,-3.26171 1.801393,0 3.26171,1.460317 3.26171,3.26171 z m -53.600443,26.9775685 c 0,0.4860106 -0.393989,0.88 -0.88,0.88 -0.486011,0 -0.88,-0.3939894 -0.88,-0.88 0,-0.4860106 0.393989,-0.88 0.88,-0.88 0.486011,0 0.88,0.3939894 0.88,0.88 z m 12.906357,18.9323455 c 0,0.439817 -0.356542,0.796359 -0.796359,0.796359 -0.439817,0 -0.79636,-0.356542 -0.79636,-0.796359 0,-0.439817 0.356543,-0.796359 0.79636,-0.796359 0.439817,0 0.796359,0.356542 0.796359,0.796359 z m -4.869999,0 c 0,0.439817 -0.356542,0.796359 -0.796359,0.796359 -0.439817,0 -0.79636,-0.356542 -0.79636,-0.796359 0,-0.439817 0.356543,-0.796359 0.79636,-0.796359 0.439817,0 0.796359,0.356542 0.796359,0.796359 z m 4.869999,-12.4500002 c 0,0.439817 -0.356542,0.7963591 -0.796359,0.7963593 -0.439817,4e-7 -0.79636,-0.3565419 -0.79636,-0.7963593 0,-0.4398174 0.356543,-0.7963597 0.79636,-0.7963593 0.439817,2e-7 0.796359,0.3565423 0.796359,0.7963593 z m -4.869999,0 c 0,0.439817 -0.356542,0.7963591 -0.796359,0.7963593 -0.439817,4e-7 -0.79636,-0.3565419 -0.79636,-0.7963593 0,-0.4398174 0.356543,-0.7963597 0.79636,-0.7963593 0.439817,2e-7 0.796359,0.3565423 0.796359,0.7963593 z m -4.06136,-23.6765858 c 0,0.372792 -0.302208,0.675 -0.675,0.675 -0.372792,0 -0.675,-0.302208 -0.675,-0.675 0,-0.372792 0.302208,-0.675 0.675,-0.675 0.372792,0 0.675,0.302208 0.675,0.675 z m -2.359998,0 c 0,0.372792 -0.302208,0.675 -0.675,0.675 -0.372792,0 -0.675,-0.302208 -0.675,-0.675 0,-0.372792 0.302208,-0.675 0.675,-0.675 0.372792,0 0.675,0.302208 0.675,0.675 z m -2.41,0 c 0,0.372792 -0.302208,0.675 -0.675,0.675 -0.372792,0 -0.675,-0.302208 -0.675,-0.675 0,-0.372792 0.302208,-0.675 0.675,-0.675 0.372792,0 0.675,0.302208 0.675,0.675 z m 10.579997,5.108326 c 0,0.477726 -0.387274,0.865 -0.865,0.865 -0.477726,0 -0.865,-0.387274 -0.865,-0.865 0,-0.477726 0.387274,-0.865 0.865,-0.865 0.477726,0 0.865,0.387274 0.865,0.865 z m 18.8072215,1.633744 c 0,0.469442 -0.380558,0.85 -0.8500001,0.85 -0.469442,0 -0.85,-0.380558 -0.85,-0.85 0,-0.469442 0.380558,-0.85 0.85,-0.85 0.4694421,0 0.8500001,0.380558 0.8500001,0.85 z m -0.138169,12.92592966 c 0,0.47720236 -0.3868489,0.86405132 -0.8640513,0.86405134 -0.4772024,3e-8 -0.8640514,-0.38684894 -0.8640514,-0.86405134 0,-0.47720236 0.386849,-0.86405136 0.8640514,-0.86405136 0.4772024,0 0.8640513,0.386849 0.8640513,0.86405136 z M -41.140002,4.6162271 c 0,1.2813006 -1.038699,2.32 -2.32,2.3199999 -1.281301,1e-7 -2.32,-1.0386993 -2.32,-2.3199999 0,-1.2813006 1.038699,-2.3200001 2.32,-2.32 1.281301,-10e-8 2.32,1.0386994 2.32,2.32 z m 19.025,21.0495189 c 0,1.759027 -1.425973,3.185 -3.185,3.185 -1.759027,0 -3.185,-1.425973 -3.185,-3.185 0,-1.759027 1.425973,-3.185 3.185,-3.185 1.759027,0 3.185,1.425973 3.185,3.185 z m -2.859999,-26.8929491 c 0,1.73141269 -1.403587,3.135 -3.135,3.135 -1.731413,0 -3.135,-1.40358731 -3.135,-3.135 0,-1.7314127 1.403587,-3.135 3.135,-3.135 1.731413,0 3.135,1.4035873 3.135,3.135 z m 11.932413,-29.0717429 c 0,1.800448 -1.459552,3.26 -3.26,3.26 -1.800448,0 -3.26,-1.459552 -3.26,-3.26 0,-1.800448 1.459552,-3.26 3.26,-3.26 1.800448,0 3.26,1.459552 3.26,3.26 z M 9.28354,36.8124 c 10.51022,-1.665954 20.400984,-6.05506 28.68816,-12.7306 3.406496,-3.258929 7.789725,-5.307851 12.474893,-5.831337 h 13.936349 l 3.601387,-3.781889 V 10.753559 L 65.2724,10.7536 C 62.579802,9.7281417 62.487424,5.9528935 65.126645,4.796969 h 3.116873 L 68.2435,-3.4358 C 50.940696,-9.2686458 36.232297,-20.98645 26.680246,-36.54818 l -26.8552465,0.01008 -26.8550005,0.01008 c -9.558113,15.56197 -24.27319,27.2772257 -41.5814,33.104601 l 2.6e-5,8.2300037 h 3.06 c 2.649932,1.053033 2.817015,4.7405398 0.273174,6.0289063 l -3.059988,-5e-6 v 3.72 l 3.60092,3.69 h 13.948712 c 4.691872,0.495798 9.095888,2.501716 12.549556,5.716005 8.20904,6.68834 18.021782,11.117997 28.4678,12.8509 l 9.590649,4.1e-5 z"
       inkscape:label="circle30"
       sodipodi:nodetypes="ssssssssssssssssssssssssssssssssssssssssssssscccsssssssssssssssssssssssssssssssssssssssssssssssssssssssssssssssssssssssssssssssssssssssssssssssssssssssssccccccccccccccccccccccccc" />
  </g>
  <g
     inkscape:groupmode="layer"
     id="layer4"
     inkscape:label="SilkScreen"
     style="display:inline">
    <path
       id="Silkscreen"
       style="display:inline;fill:none;stroke:#00ff00;stroke-width:0.35;stroke-linecap:square"
       d="m 35.795108,-3.3375559 c 0,0.4858758 -0.39388,0.879756 -0.879756,0.879756 -0.485876,0 -0.879756,-0.3938802 -0.879756,-0.879756 0,-0.4858758 0.39388,-0.879756 0.879756,-0.879756 0.485876,0 0.879756,0.3938802 0.879756,0.879756 z M 22.806631,15.599252 c 0,0.486367 -0.394279,0.880646 -0.880646,0.880646 -0.486367,0 -0.880646,-0.394279 -0.880646,-0.880646 0,-0.486367 0.394279,-0.880646 0.880646,-0.880646 0.486367,0 0.880646,0.394279 0.880646,0.880646 z m 5.103023,0.429456 c 0,0.4522 -0.36658,0.81878 -0.81878,0.81878 -0.4522,0 -0.81878,-0.36658 -0.81878,-0.81878 -10e-7,-0.4522 0.36658,-0.818781 0.81878,-0.818781 0.4522,0 0.818781,0.366581 0.81878,0.818781 z M 22.803938,3.1317539 c 0,0.50319 -0.407916,0.911106 -0.911106,0.911106 -0.50319,0 -0.911106,-0.407916 -0.911106,-0.911106 0,-0.50319 0.407916,-0.911106 0.911106,-0.911106 0.50319,0 0.911106,0.407916 0.911106,0.911106 z m 4.961828,0.011629 c 0,0.5324599 -0.431644,0.964104 -0.964104,0.964104 -0.53246,0 -0.964104,-0.4316441 -0.964104,-0.964104 0,-0.5324599 0.431644,-0.964104 0.964104,-0.964104 0.53246,0 0.964104,0.4316441 0.964104,0.964104 z m 3.751526,-23.6747569 c 0,0.426852 -0.346032,0.772884 -0.772884,0.772884 -0.426852,0 -0.772884,-0.346032 -0.772884,-0.772884 0,-0.426852 0.346032,-0.772884 0.772884,-0.772884 0.426852,0 0.772884,0.346032 0.772884,0.772884 z m 2.222396,0 c 0,0.354319 -0.287232,0.641551 -0.641551,0.641551 -0.354319,0 -0.641551,-0.287232 -0.641551,-0.641551 0,-0.354319 0.287232,-0.641551 0.641551,-0.641551 0.354319,0 0.641551,0.287232 0.641551,0.641551 z m 2.447289,0.120703 c 0,0.372657 -0.302098,0.674755 -0.674755,0.674755 -0.372657,0 -0.674755,-0.302098 -0.674755,-0.674755 0,-0.372657 0.302098,-0.674755 0.674755,-0.674755 0.372657,0 0.674755,0.302098 0.674755,0.674755 z m -10.203031,4.988847 c 0,0.477016 -0.386698,0.863714 -0.863714,0.863714 -0.477016,0 -0.863714,-0.386698 -0.863714,-0.863714 0,-0.477016 0.386698,-0.863714 0.863714,-0.863714 0.477016,0 0.863714,0.386698 0.863714,0.863714 z M 0,20.56025 C -4.2666648,20.56 -4.2666648,14.16 0,14.163142 c 4.1802471,0.0849 4.1802471,6.315595 0,6.397108 z m 7.1508542,-34.351284 c 0,0.468208 -0.3795574,0.847765 -0.8477651,0.847765 -0.4682077,0 -0.847765,-0.379557 -0.847765,-0.847765 0,-0.468208 0.3795573,-0.847765 0.847765,-0.847765 0.4682077,0 0.8477651,0.379557 0.8477651,0.847765 z M 7.31882,-0.86448002 C 7.31882,-0.3870409 6.9317791,-1.1045685e-8 6.45434,0 5.9769009,-1.1045685e-8 5.58986,-0.3870409 5.58986,-0.86448002 5.58986,-1.3419191 5.9769009,-1.72896 6.45434,-1.72896 c 0.4774391,0 0.86448,0.3870409 0.86448,0.86447998 z M 45.427845,4.614677 c 0,1.2818987 -1.039184,2.3210829 -2.321083,2.321083 -1.281899,-1e-7 -2.321083,-1.0391843 -2.321083,-2.321083 0,-1.2818988 1.039184,-2.321083 2.321083,-2.3210831 1.281899,1e-7 2.321083,1.0391843 2.321083,2.3210831 z m -17.290146,21.04498 c 0,1.75912 -1.426049,3.185169 -3.185169,3.185169 -1.75912,0 -3.185169,-1.426049 -3.185169,-3.185169 0,-1.75912 1.426049,-3.185169 3.185169,-3.185169 1.75912,0 3.185169,1.426049 3.185169,3.185169 z m 2.757807,-26.896896 c 0,1.73013413 -1.402551,3.132685 -3.132685,3.1326849 -1.730134,1e-7 -3.132685,-1.40255077 -3.132685,-3.1326849 0,-1.7301341 1.402551,-3.132685 3.132685,-3.1326849 1.730134,-1e-7 3.132685,1.4025508 3.132685,3.1326849 z M 19.210444,-30.306282 c 0,1.801393 -1.460317,3.26171 -3.26171,3.26171 -1.801393,0 -3.26171,-1.460317 -3.26171,-3.26171 0,-1.801393 1.460317,-3.26171 3.26171,-3.26171 1.801393,0 3.26171,1.460317 3.26171,3.26171 z m -53.600443,26.9775685 c 0,0.4860106 -0.393989,0.88 -0.88,0.88 -0.486011,0 -0.88,-0.3939894 -0.88,-0.88 0,-0.4860106 0.393989,-0.88 0.88,-0.88 0.486011,0 0.88,0.3939894 0.88,0.88 z m 12.906357,18.9323455 c 0,0.439817 -0.356542,0.796359 -0.796359,0.796359 -0.439817,0 -0.79636,-0.356542 -0.79636,-0.796359 0,-0.439817 0.356543,-0.796359 0.79636,-0.796359 0.439817,0 0.796359,0.356542 0.796359,0.796359 z m -4.869999,0 c 0,0.439817 -0.356542,0.796359 -0.796359,0.796359 -0.439817,0 -0.79636,-0.356542 -0.79636,-0.796359 0,-0.439817 0.356543,-0.796359 0.79636,-0.796359 0.439817,0 0.796359,0.356542 0.796359,0.796359 z m 4.869999,-12.4500002 c 0,0.439817 -0.356542,0.7963591 -0.796359,0.7963593 -0.439817,4e-7 -0.79636,-0.3565419 -0.79636,-0.7963593 0,-0.4398174 0.356543,-0.7963597 0.79636,-0.7963593 0.439817,2e-7 0.796359,0.3565423 0.796359,0.7963593 z m -4.869999,0 c 0,0.439817 -0.356542,0.7963591 -0.796359,0.7963593 -0.439817,4e-7 -0.79636,-0.3565419 -0.79636,-0.7963593 0,-0.4398174 0.356543,-0.7963597 0.79636,-0.7963593 0.439817,2e-7 0.796359,0.3565423 0.796359,0.7963593 z m -4.06136,-23.6765858 c 0,0.372792 -0.302208,0.675 -0.675,0.675 -0.372792,0 -0.675,-0.302208 -0.675,-0.675 0,-0.372792 0.302208,-0.675 0.675,-0.675 0.372792,0 0.675,0.302208 0.675,0.675 z m -2.359998,0 c 0,0.372792 -0.302208,0.675 -0.675,0.675 -0.372792,0 -0.675,-0.302208 -0.675,-0.675 0,-0.372792 0.302208,-0.675 0.675,-0.675 0.372792,0 0.675,0.302208 0.675,0.675 z m -2.41,0 c 0,0.372792 -0.302208,0.675 -0.675,0.675 -0.372792,0 -0.675,-0.302208 -0.675,-0.675 0,-0.372792 0.302208,-0.675 0.675,-0.675 0.372792,0 0.675,0.302208 0.675,0.675 z m 10.579997,5.108326 c 0,0.477726 -0.387274,0.865 -0.865,0.865 -0.477726,0 -0.865,-0.387274 -0.865,-0.865 0,-0.477726 0.387274,-0.865 0.865,-0.865 0.477726,0 0.865,0.387274 0.865,0.865 z m 18.8072215,1.633744 c 0,0.469442 -0.380558,0.85 -0.8500001,0.85 -0.469442,0 -0.85,-0.380558 -0.85,-0.85 0,-0.469442 0.380558,-0.85 0.85,-0.85 0.4694421,0 0.8500001,0.380558 0.8500001,0.85 z m -0.138169,12.92592966 c 0,0.47720236 -0.3868489,0.86405132 -0.8640513,0.86405134 -0.4772024,3e-8 -0.8640514,-0.38684894 -0.8640514,-0.86405134 0,-0.47720236 0.386849,-0.86405136 0.8640514,-0.86405136 0.4772024,0 0.8640513,0.386849 0.8640513,0.86405136 z M -41.140002,4.6162271 c 0,1.2813006 -1.038699,2.32 -2.32,2.3199999 -1.281301,1e-7 -2.32,-1.0386993 -2.32,-2.3199999 0,-1.2813006 1.038699,-2.3200001 2.32,-2.32 1.281301,-10e-8 2.32,1.0386994 2.32,2.32 z m 19.025,21.0495189 c 0,1.759027 -1.425973,3.185 -3.185,3.185 -1.759027,0 -3.185,-1.425973 -3.185,-3.185 0,-1.759027 1.425973,-3.185 3.185,-3.185 1.759027,0 3.185,1.425973 3.185,3.185 z m -2.859999,-26.8929491 c 0,1.73141269 -1.403587,3.135 -3.135,3.135 -1.731413,0 -3.135,-1.40358731 -3.135,-3.135 0,-1.7314127 1.403587,-3.135 3.135,-3.135 1.731413,0 3.135,1.4035873 3.135,3.135 z m 11.932413,-29.0717429 c 0,1.800448 -1.459552,3.26 -3.26,3.26 -1.800448,0 -3.26,-1.459552 -3.26,-3.26 0,-1.800448 1.459552,-3.26 3.26,-3.26 1.800448,0 3.26,1.459552 3.26,3.26 z m 39.722834,-6.249234 c 9.552051,15.56173 24.26045,27.2795342 41.563254,33.11238 l 1.8e-5,8.232769 H 65.126645 C 62.487424,5.9528935 62.579802,9.7281417 65.2724,10.7536 l 2.711929,-4.1e-5 v 3.715015 l -3.601387,3.781889 H 50.446593 C 45.761425,18.773949 41.378196,20.822871 37.9717,24.0818 29.684524,30.75734 19.79376,35.146446 9.28354,36.8124 l -9.464092,3.8e-5 -9.590649,-4.1e-5 c -10.446018,-1.732903 -20.25876,-6.16256 -28.4678,-12.8509 -3.453668,-3.214289 -7.857684,-5.220207 -12.549556,-5.716005 h -13.948712 l -3.60092,-3.69 v -3.72 l 3.059988,5e-6 c 2.543841,-1.2883665 2.376758,-4.9758733 -0.273174,-6.0289063 h -3.06 l -2.6e-5,-8.2300037 c 17.30821,-5.8273753 32.023287,-17.542631 41.5814,-33.104601 l 26.8550005,-0.01008 z"
       inkscape:label="circle30"
       transform="matrix(1,0,0,-1,69.626424,38.177486)"
       sodipodi:nodetypes="ssssssssssssssssssssssssssssssssssssssssssssscccsssssssssssssssssssssssssssssssssssssssssssssssssssssssssssssssssssssssssssssssssssssssssssssssssssssssssccccccccccccccccccccccccc">
      <title
         id="title31">silkscreen</title>
    </path>
  </g>
</svg>
