<?xml version="1.0" encoding="UTF-8" standalone="no"?>
<svg
   width="139.23499020146852mm"
   height="76.09071606274851mm"
   viewBox="0 0 139.23499020146852 76.09071606274851"
   version="1.1"
   id="svg30"
   sodipodi:docname="WheelBoard.svg"
   inkscape:version="1.3 (0e150ed6c4, 2023-07-21)"
   xmlns:inkscape="http://www.inkscape.org/namespaces/inkscape"
   xmlns:sodipodi="http://sodipodi.sourceforge.net/DTD/sodipodi-0.dtd"
   xmlns="http://www.w3.org/2000/svg"
   xmlns:svg="http://www.w3.org/2000/svg">
  <defs
     id="defs30" />
  <sodipodi:namedview
     id="namedview30"
     pagecolor="#ffffff"
     bordercolor="#666666"
     borderopacity="1.0"
     inkscape:showpageshadow="2"
     inkscape:pageopacity="0.0"
     inkscape:pagecheckerboard="0"
     inkscape:deskcolor="#d1d1d1"
     inkscape:document-units="mm"
     inkscape:zoom="1.5316134"
     inkscape:cx="263.12123"
     inkscape:cy="143.96584"
     inkscape:window-width="1920"
     inkscape:window-height="997"
     inkscape:window-x="1352"
     inkscape:window-y="15"
     inkscape:window-maximized="1"
     inkscape:current-layer="svg30" />
  <g
     id="Sketch"
     transform="translate(69.626423,38.177487) scale(1,-1)"
     style="fill:none">
    <path
       id="circle15"
       style="fill:none;stroke:#00ff00;stroke-width:0.35;stroke-linecap:square;fill-opacity:1"
       d="m -34.039998,-3.3378105 a 0.88,0.88 0 0 1 -0.88,0.88 0.88,0.88 0 0 1 -0.88,-0.88 0.88,0.88 0 0 1 0.88,-0.88 0.88,0.88 0 0 1 0.88,0.88 z m 12.906357,18.9323455 a 0.7963593,0.7963593 0 0 1 -0.796359,0.796359 0.7963593,0.7963593 0 0 1 -0.79636,-0.796359 0.7963593,0.7963593 0 0 1 0.79636,-0.796359 0.7963593,0.7963593 0 0 1 0.796359,0.796359 z m -4.869999,0 a 0.7963593,0.7963593 0 0 1 -0.796359,0.796359 0.7963593,0.7963593 0 0 1 -0.79636,-0.796359 0.7963593,0.7963593 0 0 1 0.79636,-0.796359 0.7963593,0.7963593 0 0 1 0.796359,0.796359 z M -21.133641,3.1445348 A 0.7963593,0.7963593 0 0 1 -21.93,3.9408941 0.7963593,0.7963593 0 0 1 -22.72636,3.1445348 0.7963593,0.7963593 0 0 1 -21.93,2.3481755 a 0.7963593,0.7963593 0 0 1 0.796359,0.7963593 z m -4.869999,0 a 0.7963593,0.7963593 0 0 1 -0.796359,0.7963593 0.7963593,0.7963593 0 0 1 -0.79636,-0.7963593 0.7963593,0.7963593 0 0 1 0.79636,-0.7963593 0.7963593,0.7963593 0 0 1 0.796359,0.7963593 z M -30.065,-20.532051 a 0.67500001,0.67500001 0 0 1 -0.675,0.675 0.67500001,0.67500001 0 0 1 -0.675,-0.675 0.67500001,0.67500001 0 0 1 0.675,-0.675 0.67500001,0.67500001 0 0 1 0.675,0.675 z m -2.359998,0 a 0.67500001,0.67500001 0 0 1 -0.675,0.675 0.67500001,0.67500001 0 0 1 -0.675,-0.675 0.67500001,0.67500001 0 0 1 0.675,-0.675 0.67500001,0.67500001 0 0 1 0.675,0.675 z m -2.41,0 a 0.67500001,0.67500001 0 0 1 -0.675,0.675 0.67500001,0.67500001 0 0 1 -0.675,-0.675 0.67500001,0.67500001 0 0 1 0.675,-0.675 0.67500001,0.67500001 0 0 1 0.675,0.675 z m 10.579997,5.108326 a 0.86500001,0.86500001 0 0 1 -0.865,0.865 0.86500001,0.86500001 0 0 1 -0.865,-0.865 0.86500001,0.86500001 0 0 1 0.865,-0.865 0.86500001,0.86500001 0 0 1 0.865,0.865 z M 0,20.56 a 3.2,3.2 0 0 1 0,-6.4 M -9.35,36.548225 H 0 m -9.3511747,0.0046 A 60.83,60.83 0 0 1 -37.889,23.9524 21.78,21.78 0 0 0 -50.4386,18.2364 l -13.948668,-5e-6 -3.60092,-3.69 v -3.72 h 3.06 A 3.31,3.31 0 0 0 -65.2014,4.79749 l -3.059974,3.7e-6 v -8.23 A 78.01,78.01 0 0 0 -26.68,-36.5371 L 0,-36.537111 m -5.4477795,22.74713 a 0.85000002,0.85000002 0 0 1 -0.8500001,0.85 0.85000002,0.85000002 0 0 1 -0.85,-0.85 0.85000002,0.85000002 0 0 1 0.85,-0.85 0.85000002,0.85000002 0 0 1 0.8500001,0.85 z m -0.138169,12.92592966 A 0.86405134,0.86405134 0 0 1 -6.4499998,0 0.86405134,0.86405134 0 0 1 -7.3140512,-0.86405134 0.86405134,0.86405134 0 0 1 -6.4499998,-1.7281027 0.86405134,0.86405134 0 0 1 -5.5859485,-0.86405134 Z M -40.790001,4.6071301 a 2.3199999,2.3199999 0 0 1 -2.32,2.3199999 2.3199999,2.3199999 0 0 1 -2.32,-2.3199999 2.3199999,2.3199999 0 0 1 2.32,-2.32 2.3199999,2.3199999 0 0 1 2.32,2.32 z m 19.025,21.0495189 a 3.1849999,3.1849999 0 0 1 -3.185,3.185 3.1849999,3.1849999 0 0 1 -3.185,-3.185 3.1849999,3.1849999 0 0 1 3.185,-3.185 3.1849999,3.1849999 0 0 1 3.185,3.185 z M -24.625,-1.2363001 a 3.135,3.135 0 0 1 -3.135,3.135 3.135,3.135 0 0 1 -3.135,-3.135 3.135,3.135 0 0 1 3.135,-3.135 3.135,3.135 0 0 1 3.135,3.135 z m 11.932413,-29.0717429 a 3.26,3.26 0 0 1 -3.26,3.26 3.26,3.26 0 0 1 -3.26,-3.26 3.26,3.26 0 0 1 3.26,-3.26 3.26,3.26 0 0 1 3.26,3.26 z" />
    <title
       id="title15">b'Sketch'</title>
  </g>
  <g
     id="MirroredSketch"
     transform="translate(69.626423,38.177487) scale(1,-1)">
    <circle
       cx="15.948734"
       cy="-30.306282"
       r="3.26171"
       stroke="#00ff00"
       stroke-width="0.35 px"
       style="stroke-width:0.35;stroke-miterlimit:4;stroke-dasharray:none;stroke-linecap:square;fill:none"
       id="circle16" />
    <circle
       cx="27.762822"
       cy="-1.237239"
       r="3.132685"
       stroke="#00ff00"
       stroke-width="0.35 px"
       style="stroke-width:0.35;stroke-miterlimit:4;stroke-dasharray:none;stroke-linecap:square;fill:none"
       id="circle17" />
    <circle
       cx="24.952529"
       cy="25.659657"
       r="3.185169"
       stroke="#00ff00"
       stroke-width="0.35 px"
       style="stroke-width:0.35;stroke-miterlimit:4;stroke-dasharray:none;stroke-linecap:square;fill:none"
       id="circle18" />
    <circle
       cx="43.106763"
       cy="4.614677"
       r="2.321083"
       stroke="#00ff00"
       stroke-width="0.35 px"
       style="stroke-width:0.35;stroke-miterlimit:4;stroke-dasharray:none;stroke-linecap:square;fill:none"
       id="circle19" />
    <circle
       cx="6.45434"
       cy="-0.86448"
       r="0.86448"
       stroke="#00ff00"
       stroke-width="0.35 px"
       style="stroke-width:0.35;stroke-miterlimit:4;stroke-dasharray:none;stroke-linecap:square;fill:none"
       id="circle20" />
    <circle
       cx="6.303089"
       cy="-13.791034"
       r="0.847765"
       stroke="#00ff00"
       stroke-width="0.35 px"
       style="stroke-width:0.35;stroke-miterlimit:4;stroke-dasharray:none;stroke-linecap:square;fill:none"
       id="circle21" />
    <path
       id="MirroredSketch_w0006"
       d="M 0.0 -36.54818000000087 L 26.680245999999116 -36.54818000000087 A 78.0073 78.0073 0 0 0 68.2435 -3.4358L 68.24351828792533 4.796969000000002 L 65.12664473725302 4.796969000000002 A 3.2189 3.2189 0 0 0 65.2724 10.7536L 67.984329 10.753558725928817 L 67.984329 14.468574 L 64.382942 18.250462951852796 L 50.44659257532129 18.250462951852796 A 21.4995 21.4995 0 0 0 37.9717 24.0818A 60.9398 60.9398 0 0 1 9.28354 36.8124L 0.0 36.81243821566002 "
       stroke="#00ff00"
       stroke-width="0.35 px"
       style="stroke-width:0.35;stroke-miterlimit:4;stroke-dasharray:none;stroke-linecap:square;fill:none;fill-opacity:1;fill-rule: evenodd" />
    <path
       id="MirroredSketch_w0007"
       d="M -1e-15 14.16628345805579 A 3.19772 3.19772 0 0 1 1.00614e-15 20.5605"
       stroke="#00ff00"
       stroke-width="0.35 px"
       style="stroke-width:0.35;stroke-miterlimit:4;stroke-dasharray:none;stroke-linecap:square;fill:none;fill-opacity:1;fill-rule: evenodd" />
    <circle
       cx="25.120231"
       cy="-15.421824"
       r="0.863714"
       stroke="#00ff00"
       stroke-width="0.35 px"
       style="stroke-width:0.35;stroke-miterlimit:4;stroke-dasharray:none;stroke-linecap:square;fill:none"
       id="circle22" />
    <circle
       cx="35.512224"
       cy="-20.410671"
       r="0.674755"
       stroke="#00ff00"
       stroke-width="0.35 px"
       style="stroke-width:0.35;stroke-miterlimit:4;stroke-dasharray:none;stroke-linecap:square;fill:none"
       id="circle23" />
    <circle
       cx="33.098135"
       cy="-20.531374"
       r="0.641551"
       stroke="#00ff00"
       stroke-width="0.35 px"
       style="stroke-width:0.35;stroke-miterlimit:4;stroke-dasharray:none;stroke-linecap:square;fill:none"
       id="circle24" />
    <circle
       cx="30.744408"
       cy="-20.531374"
       r="0.772884"
       stroke="#00ff00"
       stroke-width="0.35 px"
       style="stroke-width:0.35;stroke-miterlimit:4;stroke-dasharray:none;stroke-linecap:square;fill:none"
       id="circle25" />
    <circle
       cx="26.801662"
       cy="3.143383"
       r="0.964104"
       stroke="#00ff00"
       stroke-width="0.35 px"
       style="stroke-width:0.35;stroke-miterlimit:4;stroke-dasharray:none;stroke-linecap:square;fill:none"
       id="circle26" />
    <circle
       cx="21.892831"
       cy="3.131754"
       r="0.911106"
       stroke="#00ff00"
       stroke-width="0.35 px"
       style="stroke-width:0.35;stroke-miterlimit:4;stroke-dasharray:none;stroke-linecap:square;fill:none"
       id="circle27" />
    <circle
       cx="27.090873"
       cy="16.028707"
       r="0.81878"
       stroke="#00ff00"
       stroke-width="0.35 px"
       style="stroke-width:0.35;stroke-miterlimit:4;stroke-dasharray:none;stroke-linecap:square;fill:none"
       id="circle28" />
    <circle
       cx="21.925985"
       cy="15.599252"
       r="0.880646"
       stroke="#00ff00"
       stroke-width="0.35 px"
       style="stroke-width:0.35;stroke-miterlimit:4;stroke-dasharray:none;stroke-linecap:square;fill:none"
       id="circle29" />
    <circle
       cx="34.91535"
       cy="-3.337556"
       r="0.879756"
       stroke="#00ff00"
       stroke-width="0.35 px"
       style="stroke-width:0.35;stroke-miterlimit:4;stroke-dasharray:none;stroke-linecap:square;fill:none"
       id="circle30" />
    <title
       id="title30">b'MirroredSketch'</title>
  </g>
</svg>
